<svg xmlns="http://www.w3.org/2000/svg" xml:space="preserve" id="Layer_1" x="0" y="0" style="enable-background:new 0 0 1000 386" version="1.1" viewBox="0 0 1000 386">
  <style>
    .st0{fill:#fff}
  </style>
  <path d="M357.47 288.93v-93.51c0-7.51 1.15-8.64 8.78-8.64 12.35 0 24.69-.01 37.04 0 6.56.01 8.04 1.53 8.04 8.22 0 59.47.06 180.59-.1 181.65-.42 2.67-2.21 4.35-4.92 4.6-1.48.14-25.91-.04-36.63.12-2.75.04-4.45-.92-6.15-2.97-26.43-32.04-52.92-64.02-79.4-96.01-.95-1.14-1.91-2.27-3.03-3.59-1.22 1.48-.76 2.99-.76 4.35-.03 29.73-.11 59.47.04 89.2.04 6.95-1.43 9.19-8.91 9.03-12.34-.26-39.22-.01-40.29-.14-2.72-.35-4.37-2.05-4.64-4.82-.13-1.35-.12-103.18-.01-152.74.02-7.71-1.98-14.41-7.27-20.1-1.75-1.89-3.28-3.98-4.92-5.96-1.72-2.07-2.13-4.4-1.12-6.85 1.1-2.67 3.34-3.88 6.13-3.95 3.66-.1 34.87.08 46.8-.11 3.91-.06 6.55 1.27 9.03 4.27 26.14 31.75 52.39 63.4 78.62 95.07.9 1.09 1.84 2.15 2.76 3.22.3-.11.6-.23.91-.34z" class="st0"/>
  <path d="M118.03 380.99c-30.61-1.06-55.67-11.38-75.62-32.52-20.12-21.32-27.77-47.22-24.26-76.12 4.83-39.79 32.19-71.3 70.5-81.91 21.08-5.84 41.65-3.41 61.71 4.66 12.47 5.01 23.62 12.16 33.21 21.61 18.89 18.6 27.85 41.42 27.8 67.73-.08 46.36-32.52 85.76-77.97 94.82-5.55 1.11-11.29 1.29-15.37 1.73zm-.84-80.76c5.67-6 12.23-9.84 20.15-10.96 4.41-.63 8.91-.64 13.37-.95 2.3-.16 4.63-.17 6.87-.62 3.24-.64 4.55-3.67 2.98-6.54-.51-.94-1.28-1.74-2-2.55-3.67-4.18-7.32-8.36-11.05-12.48-1.16-1.28-1.63-2.54-1.57-4.35.2-5.63-3.06-9.38-8.59-9.79-2-.15-3.22-.92-4.42-2.31-3.91-4.5-7.88-8.96-11.85-13.41-1.32-1.47-2.89-2.55-4.99-1.99-2.23.6-3.23 2.23-3.57 4.45-.44 2.95-1.17 5.86-1.5 8.81-1.28 11.58-5.96 21.2-15.23 28.6-5.92 4.73-11.48 9.94-17.06 15.08-4.4 4.04-4.72 9.2-.93 13.76 2.77 3.34 5.64 6.61 8.64 9.73 3.8 3.95 8.82 4.17 13.18.8 1.14-.88 2.23-1.84 3.43-2.83 1.04 1.25 1.8 2.2 2.59 3.11 3.32 3.85 7.34 6.78 11.87 9.08 2.79 1.42 5.16 1.11 7.41-1.05 1.47-1.41 3.03-2.71 4.55-4.06 5.38-4.79 4.71-8.16-2.13-10.68-4.5-1.63-7.95-4.41-10.15-8.85z" style="fill:#f9c05d"/>
  <path d="M649.49 195.61c0-7.62 1.18-8.83 8.63-8.83 46.79 0 142.28-.05 143.23.02 4.57.33 6.45 3.15 4.94 7.5-3.07 8.84-10.39 29.83-10.9 31.51-1.04 3.41-2.53 4.56-6.18 4.7-1.08.04-79.76-.05-80.97.08-2.76.29-4.62 1.92-4.68 4.71-.16 7.32-.16 14.66-.02 21.98.06 2.96 1.96 4.64 4.93 4.96 1.07.12 54.39.03 55.34.06 4.99.17 6.89 2.81 5.31 7.48-1.57 4.62-8.97 25.87-10.99 31.91-1 2.99-2.45 4.08-6.16 4.12-6.51.06-34.18-.02-41.5.04-5.41.04-6.98 1.66-7.02 7.11-.04 5.84-.04 11.67 0 17.51.04 5.72 1.48 7.15 7.32 7.16 25.09.02 81.79-.04 85.04.03 4.9.11 6.5 1.76 6.52 6.74.04 10.04.04 20.09 0 30.13-.02 5.15-1.64 6.77-6.86 6.77-46.25.02-92.5.02-138.75 0-5.62 0-7.19-1.59-7.2-7.34-.04-29.86-.03-148.76-.03-178.35zM61.41 84.38c0 1.45.05 84.73-.02 85.81-.2 3.35-1.74 4.88-5.07 5.09-.95.06-24.28.02-35 .02-7.21 0-8.02-.79-8.02-7.85 0-44.39.02-136.72-.22-138.46-.56-3.98-2.13-7.55-4.72-10.65-2-2.4-3.99-4.8-5.94-7.24C.83 9.11.55 6.9 1.72 4.63c1.1-2.14 2.98-3.01 5.36-3.01 14.65.02 29.3.03 43.95-.02 2.51-.01 3.93 1.44 5.35 3.16 9.07 10.99 72.32 87.21 73.18 88.16.28-.09.57-.18.85-.26 0-1.43-.04-84.67.02-85.75.17-3.68 1.59-5.23 5.25-5.25 12.48-.07 24.96-.06 37.44 0 3.58.02 5.16 1.67 5.39 5.2.06.95.02 160.6.02 160.87-.02 6.48-1.1 7.58-7.53 7.58-9.77.01-19.54-.1-29.3.07-2.74.05-4.46-.89-6.16-2.95-22.87-27.75-45.82-55.44-68.75-83.14-1.46-1.76-2.93-3.51-4.39-5.26-.34.1-.67.23-.99.35zM630.56 200.01a84042.5 84042.5 0 0 0-16.84 40.6c-1.52-.71-2.83-1.3-4.11-1.93-11.23-5.6-22.93-9.78-35.36-11.73-9.99-1.57-20.01-2.01-29.89.49-3.48.88-6.91 2.45-9.97 4.34-3.75 2.33-5.63 6.09-5.87 10.62-.22 4.18 1.34 7.6 4.75 9.76 3.29 2.09 6.81 4.11 10.51 5.17 8.84 2.54 17.83 4.59 26.8 6.68 10.56 2.46 21.13 4.88 31.24 8.9 6.45 2.57 12.59 5.7 18.14 9.92 11.63 8.85 17.7 20.7 18.52 35.18 1.29 22.95-8.18 40.46-27.34 52.84-11.02 7.12-23.31 10.96-36.17 12.72-29.75 4.07-58.68.64-86.63-10.41-4.27-1.69-8.37-3.86-12.4-6.07-4.1-2.25-4.71-4.39-2.78-8.77 4.14-9.44 8.32-18.86 12.55-28.26 2.12-4.71 4.77-5.54 9.44-2.97 11.37 6.28 23.44 10.62 36.17 13.08 12.88 2.48 25.82 3.38 38.75.41 2.73-.63 5.48-1.69 7.89-3.11 8.41-4.98 8.94-15.26.89-20.76-3.52-2.4-7.61-4.29-11.71-5.45-9.63-2.74-19.42-4.95-29.17-7.29-9.89-2.37-19.83-4.69-29.08-8.99-5.5-2.56-10.95-5.47-15.86-9-11.98-8.63-18.01-20.78-18.83-35.4-1.38-24.65 9.09-42.95 30.32-55.21 10.61-6.13 22.21-9.43 34.25-10.98 24.98-3.21 49.52-1.12 73.41 7.14 6.27 2.17 12.36 4.75 18.38 8.48zM485.52 9.86c0-.95-.03-1.9.01-2.85.17-3.78 1.71-5.25 5.59-5.39.54-.02 1.08-.01 1.63-.01 25.36 0 50.73-.01 76.09.01 16.04.01 31.65 2.57 46.33 9.18 28.72 12.92 45.12 35.09 48.77 66.48 1.92 16.49.09 32.54-6.67 47.79-9.64 21.75-26.5 35.6-48.52 43.58-11.44 4.14-23.31 6.4-35.44 6.5-27.26.22-54.52.13-81.79.12-4.66 0-5.99-1.52-6-6.61-.01-26.87-.01-132.74 0-158.8zm49.09 119.6c.01 5.13 1.48 6.6 6.49 6.62 8.68.03 17.37.19 26.04-.08 4.58-.14 9.24-.62 13.68-1.72 16.45-4.08 27.5-14.1 32.22-30.62 1.84-6.46 2.22-13.09 1.81-19.78-1.42-22.97-16.66-39.39-39.38-42.31-3.62-.47-7.29-.69-10.94-.74-7.87-.11-15.74-.06-23.6-.02-4.78.03-6.23 1.54-6.33 6.38-.02.81 0 1.63 0 2.44 0 12.91-.02 66.12.01 79.83zM820.03 5.68c.29-2.25 1.71-3.66 3.96-3.97 1.07-.15 53.7-.08 78.93-.09 15.48 0 30.58 2.33 44.85 8.45 30.51 13.08 47.53 36.22 50.74 69.37 1.6 16.55-.62 32.53-7.77 47.61-9.78 20.62-26.23 33.81-47.36 41.53-11.29 4.13-23.03 6.44-35.02 6.56-27.53.26-55.06.15-82.59.15-4.48 0-5.81-1.5-5.82-6.33-.02-26.89-.08-162.08.08-163.28zm48.95 123.78c.01 5.13 1.45 6.61 6.46 6.62 8.68.03 17.37.19 26.05-.08 4.58-.14 9.24-.64 13.68-1.72 14.8-3.62 25.53-12.21 30.97-26.74 2.65-7.08 3.57-14.49 3.18-22.02-1.29-24.84-16.01-40.87-40.7-44.04-5.62-.72-11.36-.56-17.05-.66-5.56-.1-11.13-.07-16.69 0-4.26.05-5.78 1.65-5.9 5.96-.03.95-.03 68.97 0 82.68zM338.53 9.21c0-7.24.96-8.18 8.23-8.18 40.01 0 122.48-.08 123.69.05 2.89.31 4.56 1.84 4.59 4.7.1 9.91.1 19.82-.02 29.72-.03 2.86-1.77 4.29-4.72 4.51-1.08.08-77.72-.04-78.93.08-2.71.27-4.43 1.71-4.5 4.34-.17 6.51-.17 13.03-.02 19.54.07 2.84 1.81 4.3 4.78 4.47 2.16.13 48.69-.01 49.64.07 3.82.3 5.51 2.77 4.25 6.44-2.46 7.18-5.03 14.33-7.56 21.49-.68 1.92-1.42 3.81-2.02 5.76-1.45 4.72-2.16 5.31-7.17 5.32-10.99.02-34.86 0-35.81.01-4.89.07-6.17 1.35-6.21 6.38-.05 5.02-.03 10.04-.01 15.07.03 5.63 1.33 6.95 6.96 6.96 24.28.02 48.56.01 72.83.01 8.08 0 8.57.49 8.57 8.48 0 7.87.02 15.74-.01 23.62-.02 5.5-1.27 6.85-6.61 6.86-41.1.02-82.19.02-123.29 0-5.34 0-6.66-1.39-6.67-6.87 0-26.77.01-132.64.01-158.83zM672.99 6.15c.29-3.3 1.89-4.86 5.18-5.11.94-.07 125.19-.07 126.14-.01 3.57.22 5.22 1.78 5.25 5.34.07 9.5.08 19 0 28.5-.03 3.4-1.64 4.93-4.96 5.14-1.08.07-77.73-.05-78.94.09-2.5.29-4.23 1.66-4.3 4.1-.19 6.64-.2 13.3-.03 19.94.07 2.64 1.83 4.03 4.55 4.29 1.08.1 48.69 0 49.64.06 4.09.26 5.78 2.71 4.42 6.65-2.47 7.18-5.06 14.32-7.59 21.47-.68 1.92-1.38 3.83-1.97 5.77-1.33 4.38-2.22 5.09-6.95 5.11-7.73.03-32.15-.04-36.62.03-3.96.06-5.51 1.46-5.59 5.36-.13 5.83-.12 11.67 0 17.51.08 3.81 1.72 5.36 5.55 5.5 2.84.11 76.91-.03 78.12.07 2.97.24 4.6 1.65 4.63 4.58.11 9.91.1 19.82 0 29.72-.03 2.69-1.6 4.13-4.33 4.52-1.07.15-126.41.15-127.35.04-3.1-.35-4.56-1.84-4.85-5-.11-1.19-.11-162.46 0-163.67zM192.29 6.83c.13-4.11 1.61-5.63 5.64-5.8.95-.04 124.67-.06 125.75.01 3.33.24 5.1 1.75 5.15 5.09.13 9.64.14 19.28-.01 28.91-.05 3.38-1.79 4.82-5.18 4.97-2.03.09-77.33-.05-78.54.07-2.88.28-4.57 1.82-4.62 4.68a488.5 488.5 0 0 0 .01 19.14c.06 2.66 1.71 4.21 4.33 4.52 1.21.14 49.11.02 50.05.09 3.84.28 5.57 2.73 4.33 6.35-2.28 6.67-4.67 13.31-7 19.96-.98 2.81-1.95 5.64-2.86 8.47-1 3.12-2.2 4.09-5.59 4.21-2.03.07-26.72 0-37.03.03-4.92.01-6.27 1.37-6.3 6.28-.04 5.16-.03 10.32 0 15.48.03 5.26 1.42 6.61 6.86 6.64 5.29.03 75.7-.05 76.91.05 2.78.23 4.16 1.52 4.6 4.25.13.8.11 1.62.12 2.44.01 8.42.03 16.83 0 25.25-.02 5.61-1.37 6.97-7.01 6.97-40.83.02-124.68.01-125.73-.2-2.32-.46-3.53-1.78-3.78-4.15-.17-1.34-.13-162.62-.1-163.71zM974.27 186.78c7.89 0 9.46 2.23 6.88 9.63-3.48 9.98-6.95 19.97-10.39 29.96-1.02 2.95-2.55 4.1-6.17 4.13-7.73.06-30.51 0-34.17.03-5.56.03-7.05 1.48-7.09 6.92-.03 3.93.03 136.51-.02 137.59-.18 4.3-2.01 6.23-6.28 6.25-14.24.05-28.47.06-42.71-.01-4.05-.02-5.9-1.96-6.09-6-.06-1.22 0-136.91-.02-138-.07-5.17-1.63-6.74-6.86-6.75-14.64-.03-46.11.04-47.18-.04-4.31-.33-6.26-3.16-4.84-7.24 2.97-8.58 10.36-29.83 11-31.9.98-3.16 2.51-4.37 5.89-4.56 1.07-.06 123.78-.02 148.05-.01z" class="st0"/>
</svg>
