<?xml version="1.0" encoding="utf-8"?>
<svg xmlns="http://www.w3.org/2000/svg" viewBox="0 0 336 78" xml:space="preserve">
  <path fill="#fff" d="M334.1 30.7h-5.8v21.4h-4.9V30.7h-5.7v-4h16.4zm-22.9-2.5c-.7-.6-1.5-1-2.5-1.3-.9-.4-2-.5-3.1-.5-1.3 0-2.5.2-3.5.6-1 .4-1.8.9-2.5 1.5-.7.7-1.1 1.4-1.5 2.3-.4.9-.5 1.8-.5 2.8 0 1.6.4 2.9 1 4.1.7 1 2.1 2 4.1 2.6l3.2 1c.6.2 1 .4 1.3.5.3.2.6.4.8.6.2.2.3.6.4.9.1.4.1.9.1 1.6 0 .6 0 1-.1 1.5s-.2.8-.4 1c-.2.3-.5.5-.9.7-.4.2-.9.3-1.7.3-1 0-1.9-.3-2.3-.8-.5-.5-.7-1-.7-1.6v-1.3h-4.9v1.5c0 .9.2 1.7.7 2.5.4.8.9 1.4 1.7 2 .7.6 1.5 1 2.5 1.3.9.3 2 .5 3.1.5 1.4 0 2.8-.2 3.8-.6 1-.4 1.9-.9 2.5-1.6.7-.7 1-1.5 1.3-2.4.3-.9.4-1.9.4-3 0-.9-.1-1.7-.2-2.5s-.4-1.4-.8-2c-.4-.6-.9-1-1.5-1.5-.7-.4-1.5-.8-2.5-1.1l-3.4-1.1c-.6-.2-1-.4-1.3-.6s-.6-.4-.7-.6c-.2-.2-.3-.5-.3-.8 0-.3-.1-.8-.1-1.2 0-.4 0-.8.1-1.1.1-.4.2-.7.5-.9.2-.3.5-.5.9-.7.4-.2.9-.3 1.4-.3 1 0 1.9.3 2.3.9.5.6.7 1.2.7 2v1h4.9v-2c0-.8-.2-1.4-.6-2.2-.4-.8-.9-1.4-1.7-2zM287 26.7h-5.2l-7.1 25.4h5l1.4-5.4h6.7l1.4 5.4h5L287 26.7zm-4.9 16 2.3-9h.1l2.3 9h-4.7zm-15.7 1c-.1 2.9-1.3 4.4-3.7 4.4h-.3c-3.2 0-4.4-2.3-4.4-8v-1.3c0-5.8 1.2-8 4.4-8h.3c1.4 0 3.3.4 3.6 4v.2h5v-.2c-.2-5.7-3-8.3-9-8.3-6.6 0-9.4 3.7-9.4 12.4v1.3c0 8.7 2.9 12.4 9.4 12.4 6.2 0 9-2.7 9-8.6v-.2l-4.9-.1zm-39.9 1.5c0-1.4.3-2.6 1-3.6s1.7-2.1 3.1-3.2c-.7-1.1-1.3-2.1-1.6-3-.4-.9-.5-1.8-.5-2.8 0-2 .6-3.7 1.7-4.9 1.2-1.2 2.7-1.9 4.7-1.9 1.7 0 3.1.6 4.1 1.7 1.1 1.2 1.6 2.6 1.6 4.2 0 1.1-.3 2.2-.8 3.1-.5 1-1.2 1.8-2.1 2.5l-1.4 1.2 4.1 5.4h.1c.3-.6.6-1.3.8-2.1.2-.8.3-1.6.3-2.5h3.7c0 1.6-.2 3.1-.5 4.5s-.9 2.6-1.6 3.6l3.4 4.5h-5.7l-1.1-1.5c-.9.6-1.8 1.1-2.7 1.4-.9.3-1.9.5-3 .5-2.3 0-4.1-.7-5.5-2-1.5-1.2-2.1-2.9-2.1-5.1zm7.7 3.3c.5 0 1-.1 1.6-.2.5-.1 1-.4 1.5-.7l-4.6-6.1-.1.1c-.4.6-.7 1.1-.8 1.7-.1.5-.2 1.1-.2 1.7 0 1 .3 1.9.8 2.5.4.6 1.1 1 1.8 1zm-1.3-15.9c0 .5.1 1 .3 1.5.2.5.5 1.1.9 1.7l1-.8c.6-.4 1-.9 1.2-1.3.2-.4.3-.9.3-1.5s-.2-1.1-.5-1.6-.8-.7-1.4-.7c-.6 0-1.1.3-1.4.8-.2.5-.4 1.1-.4 1.9zm-30.5 19.1h15.5v-4.4h-10.4v-6.5h8.7v-4.4h-8.7v-5.9h10.4v-4.4h-15.5zM192 43.4c-.1 2.9-1.3 4.4-3.7 4.4h-.3c-3.2 0-4.4-2.3-4.4-8.1v-1.3c0-5.9 1.2-8.1 4.4-8.1h.3c1.4 0 3.3.4 3.6 4v.2h5.1v-.2c-.2-5.8-3-8.4-9.1-8.4-6.7 0-9.5 3.7-9.5 12.5v1.3c0 8.8 2.9 12.5 9.5 12.5 6.3 0 9.1-2.7 9.1-8.7v-.2h-5.1l.1.1zm-22.6-2.7c1.1-.6 2-1.5 2.6-2.5.7-1.2 1-2.6 1-4.3 0-2.4-.7-4.3-2.2-5.7-1.5-1.3-3.6-2-6.3-2h-8v25.5h5v-9.3h3.6l4.1 9.3h5.2v-.2l-5-10.8zm-2.1-3.6c-.7.7-1.6 1-2.8 1h-3.1v-7.6h3c1.3 0 2.2.3 2.8 1 .6.7.9 1.6.9 2.8.1 1.2-.2 2.1-.8 2.8zm-17.1-10.7v17.3c0 2.7-.8 4.8-2.4 6.3-1.6 1.5-3.7 2.2-6.3 2.2-2.6 0-4.7-.7-6.3-2.2-1.6-1.5-2.4-3.6-2.4-6.3V26.4h5V43c0 1.6.3 2.7 1 3.4s1.6 1.1 2.7 1.1c1.2 0 2.1-.3 2.8-1s1-1.9 1-3.5V26.4h4.9zm-32.6-.4c-6.7 0-9.5 3.7-9.5 12.5v1.3c0 8.8 2.9 12.5 9.5 12.5s9.5-3.7 9.5-12.5v-1.3c0-8.7-2.8-12.4-9.5-12.5zm4.3 13.8c0 5.7-1.2 8-4.3 8.1-3.1-.1-4.3-2.4-4.3-8.1v-1.3c0-5.8 1.2-8 4.3-8.1 3.1 0 4.3 2.3 4.3 8.1v1.3zM101 27.3c-.7-.6-1.6-1.1-2.6-1.4-1-.4-2.1-.5-3.3-.5-1.4 0-2.6.2-3.7.6s-1.9.9-2.6 1.6c-.7.7-1.2 1.5-1.6 2.4s-.5 1.9-.5 2.9c0 1.7.4 3.1 1.1 4.3.7 1.1 2.2 2.1 4.3 2.7l3.4 1.1c.6.2 1.1.4 1.4.5.3.2.6.4.8.6.2.2.3.6.4 1s.1 1 .1 1.7c0 .6 0 1.1-.1 1.6s-.2.8-.4 1.1c-.2.3-.5.5-.9.7s-1 .3-1.8.3c-1.1 0-2-.3-2.4-.8-.5-.5-.7-1.1-.7-1.7v-1.4h-5.2v1.6c0 .9.2 1.8.7 2.6.4.8 1 1.5 1.8 2.1.7.6 1.6 1 2.6 1.4 1 .3 2.1.5 3.3.5 1.5 0 2.9-.2 4-.6 1.1-.4 2-1 2.6-1.7.7-.7 1.1-1.6 1.4-2.5.3-1 .4-2 .4-3.2 0-1-.1-1.8-.2-2.6s-.4-1.5-.8-2.1-.9-1.1-1.6-1.6c-.7-.4-1.6-.8-2.6-1.2l-3.6-1.2c-.6-.2-1.1-.4-1.4-.6s-.6-.4-.7-.6c-.2-.2-.3-.5-.3-.8s-.1-.8-.1-1.3c0-.4 0-.8.1-1.2s.2-.7.5-1c.2-.3.5-.5.9-.7s.9-.3 1.5-.3c1.1 0 2 .3 2.4.9.5.6.7 1.3.7 2.1v1.1h5.2v-2.1c0-.8-.2-1.5-.6-2.3-.6-.8-1.1-1.4-1.9-2zm-29.3-5.9L36.3 1 3.4 20v20.4l12.8 7.4L1 56.6 36.3 77l32.9-19V37.6l-12.8-7.4 15.3-8.8zM38.8 8 62 21.4l-10.4 6L38.8 20V8zm-2 16.4 10 5.8-10.4 6-10-5.8 10.4-6zM8.3 22.8 33.9 8v12.5L8.3 35.3V22.8zm2.8 16.5 10.4-6 10 5.8-10.4 6-10-5.8zM33.9 70 10.7 56.6l10.4-6L33.9 58v12zm-8-22.2 10.4-6 10.4 6-10.4 6-10.4-6zm38.5 7.4L38.8 70V58l25.6-14.8v12zM62 39l-10.4 6-10.4-6 10.4-6L62 39z"/>
</svg>